<svg width="27" height="28" viewBox="0 0 27 28" fill="none" xmlns="http://www.w3.org/2000/svg">
<path d="M25.9992 20.3101V24.0811C26.0006 24.4312 25.9289 24.7777 25.7887 25.0984C25.6484 25.4192 25.4428 25.7071 25.1848 25.9438C24.9268 26.1805 24.6223 26.3606 24.2907 26.4728C23.959 26.5849 23.6076 26.6266 23.259 26.5951C19.391 26.1748 15.6755 24.8531 12.4111 22.7361C9.37402 20.8062 6.79908 18.2313 4.86917 15.1942C2.74483 11.9149 1.4228 8.18139 1.0102 4.29603C0.978791 3.94843 1.0201 3.5981 1.1315 3.26734C1.2429 2.93658 1.42196 2.63264 1.65726 2.37487C1.89256 2.1171 2.17896 1.91115 2.49822 1.77013C2.81748 1.62911 3.1626 1.55611 3.51162 1.55579H7.2826C7.89262 1.54978 8.48402 1.7658 8.94656 2.16358C9.40909 2.56136 9.71121 3.11376 9.79658 3.71781C9.95575 4.92461 10.2509 6.10953 10.6765 7.24997C10.8456 7.69987 10.8822 8.18883 10.7819 8.6589C10.6817 9.12898 10.4488 9.56046 10.1108 9.90222L8.51445 11.4986C10.3039 14.6455 12.9095 17.2512 16.0564 19.0406L17.6528 17.4442C17.9946 17.1062 18.426 16.8733 18.8961 16.7731C19.3662 16.6728 19.8551 16.7094 20.305 16.8785C21.4455 17.3041 22.6304 17.5993 23.8372 17.7584C24.4478 17.8446 25.0054 18.1521 25.4041 18.6226C25.8027 19.0931 26.0145 19.6937 25.9992 20.3101Z" stroke="white" stroke-width="2" stroke-linecap="round" stroke-linejoin="round"/>
</svg>
